
<svg width="200px" height="128px" viewBox="0 0 200 128" version="1.1" xmlns="http://www.w3.org/2000/svg" xmlns:xlink="http://www.w3.org/1999/xlink">
    <g id="Summary" stroke="none" stroke-width="1" fill="none" fill-rule="evenodd">
        <g id="Group-4">
            <rect id="Rectangle" fill="#000000" x="0" y="0" width="200" height="128"></rect>
            <text id="OpenSea" opacity="0.9" font-family="ArialMT, Arial" font-size="18" font-weight="normal" fill="#FFFFFF">
                <tspan x="90" y="83">OpenSea</tspan>
            </text>
            <text id="visit-on" opacity="0.6" font-family="ArialMT, Arial" font-size="18" font-weight="normal" fill="#FFFFFF">
                <tspan x="90" y="59">visit on</tspan>
            </text>
            <g id="Group" transform="translate(23.000000, 39.000000)" fill-rule="nonzero">
                <path d="M51,25.5 C51,39.58246 39.58246,51 25.5,51 C11.41754,51 0,39.58246 0,25.5 C0,11.41754 11.41754,0 25.5,0 C39.5854067,0 51,11.41754 51,25.5 Z" id="Path" fill="#2081E2"></path>
                <path d="M12.0367877,26.651621 L12.1479758,26.4787911 L18.8503477,16.1050286 C18.9482527,15.9531014 19.1785871,15.9688492 19.2526743,16.1338053 C20.3723987,18.6166426 21.3385667,21.7044132 20.8859134,23.6267286 C20.6926798,24.4176339 20.1633056,25.4888284 19.5676881,26.4787911 C19.4909099,26.6228444 19.4062306,26.7642919 19.3162267,26.9004712 C19.2738585,26.9632928 19.202405,27 19.1256268,27 L12.232655,27 C12.0473798,27 11.9388827,26.8009425 12.0367877,26.651621 Z" id="Path" fill="#FFFFFF"></path>
                <path d="M42,27.8966835 L42,29.5222222 C42,29.6155331 41.9431741,29.698526 41.8605335,29.7348073 C41.3541853,29.9526075 39.6207444,30.7511335 38.9,31.7570296 C37.0606741,34.3262757 35.6553371,38 32.5139888,38 L19.4087779,38 C14.7639185,38 11,34.2096371 11,29.5325963 L11,29.3821998 C11,29.2577666 11.1007444,29.1566611 11.2247891,29.1566611 L18.5304074,29.1566611 C18.6750703,29.1566611 18.7810112,29.2914684 18.7681038,29.4340703 C18.7164185,29.9111111 18.8042556,30.398526 19.0289888,30.8418649 C19.4630335,31.7259072 20.3620224,32.2781463 21.3333706,32.2781463 L24.95,32.2781463 L24.95,29.4444444 L21.3746629,29.4444444 C21.1912779,29.4444444 21.0827668,29.2318593 21.1887076,29.0814628 C21.2274297,29.0218537 21.2713482,28.9596091 21.3178371,28.8896259 C21.6562779,28.4074261 22.1393259,27.6581351 22.6198594,26.805159 C22.9479074,26.2296483 23.2656741,25.6151646 23.5214185,24.9981575 C23.5731038,24.8866779 23.6144521,24.7726188 23.6557444,24.6610831 C23.7255335,24.4640872 23.7978371,24.2799888 23.8495224,24.0959465 C23.9011518,23.9403909 23.9425,23.7770408 23.9838482,23.6240647 C24.1052668,23.1003685 24.1569521,22.5455499 24.1569521,21.9699832 C24.1569521,21.7444444 24.146615,21.5085316 24.1259409,21.2829368 C24.1156038,21.0366498 24.0845926,20.7903629 24.0535815,20.5440759 C24.0329074,20.3262757 23.9941853,20.1111111 23.9528371,19.8855724 C23.9011518,19.5562926 23.8288482,19.2296483 23.7461518,18.9003685 L23.7177668,18.7759353 C23.6557444,18.5503965 23.604115,18.3351758 23.5317556,18.1096371 C23.3276965,17.4018425 23.0925703,16.7122166 22.8445926,16.0666667 C22.7541853,15.8100056 22.6508147,15.5637187 22.5475,15.3174317 C22.3950703,14.9466555 22.2400703,14.6096371 22.0980335,14.2907314 C22.0256741,14.1455499 21.9636518,14.0133221 21.9016853,13.8785148 C21.8319521,13.7255387 21.7595926,13.5726188 21.6872891,13.4273812 C21.6356038,13.3159016 21.5761518,13.2122166 21.5348594,13.1085316 L21.0931038,12.2892574 C21.0310815,12.1777778 21.1344521,12.0455499 21.2558147,12.0792518 L24.02,12.8311223 L24.0277668,12.8311223 C24.0329074,12.8311223 24.0355335,12.8337018 24.0381038,12.8337018 L24.4023594,12.9348073 L24.8027668,13.0488665 L24.95,13.0903629 L24.95,11.4414964 C24.95,10.6455499 25.5855335,10 26.3708706,10 C26.7635112,10 27.12,10.1607146 27.3757444,10.4225907 C27.6314888,10.6844669 27.7916853,11.0422334 27.7916853,11.4414964 L27.7916853,13.8888889 L28.0861518,13.9718257 C28.1094521,13.9796203 28.1326965,13.9899944 28.1533706,14.0055275 C28.2256741,14.0599776 28.3289888,14.1403909 28.4607444,14.2388609 C28.564115,14.3218537 28.6751965,14.4229592 28.8095224,14.5266442 C29.0756038,14.7418649 29.3933147,15.0192742 29.7420926,15.3381238 C29.8350703,15.4185372 29.9255335,15.501474 30.0081741,15.5844669 C30.4576965,16.004422 30.9614185,16.497052 31.4419521,17.0414964 C31.5762779,17.1944164 31.7080335,17.349972 31.8423594,17.5133221 C31.9766853,17.6792518 32.1187779,17.8426019 32.2427668,18.0059521 C32.4055335,18.2236962 32.5811518,18.449235 32.7335815,18.6852039 C32.8059409,18.7966835 32.8885815,18.9107426 32.9583706,19.0222222 C33.1546629,19.3203797 33.3277668,19.6289113 33.4931038,19.9373868 C33.5628371,20.0799888 33.6351965,20.2355443 33.6971629,20.3885204 C33.8806038,20.800737 34.0252668,21.2207482 34.1182444,21.6407594 C34.1466853,21.7314908 34.1673594,21.8300168 34.1776965,21.9181687 L34.1776965,21.9388609 C34.2086518,22.0633502 34.2189888,22.195578 34.2293259,22.3303853 C34.2706741,22.7607146 34.25,23.1910999 34.1570224,23.6240647 C34.1182444,23.8081631 34.066615,23.9818313 34.0045926,24.1659297 C33.9425703,24.3422334 33.8806038,24.5262757 33.8005335,24.7 C33.6455335,25.0603461 33.4620926,25.4207482 33.2450703,25.7577666 C33.1753371,25.8821998 33.0926965,26.0144276 33.01,26.1388609 C32.9195926,26.2710887 32.826615,26.395578 32.7439185,26.5174317 C32.6302668,26.6729873 32.5088482,26.8362813 32.3848594,26.9814628 C32.2737779,27.1344388 32.1600703,27.2874149 32.0360815,27.4222222 C31.8630335,27.6270127 31.6976965,27.8214852 31.5245926,28.0081631 C31.4212779,28.1300168 31.3101965,28.2544501 31.1964888,28.3659297 C31.0854074,28.4903629 30.9717556,28.6018425 30.8684409,28.7055275 C30.6953371,28.8792518 30.5506741,29.0140591 30.4292556,29.1255387 L30.1450703,29.3874149 C30.1037779,29.4236962 30.0495224,29.4444444 29.9926965,29.4444444 L27.7916853,29.4444444 L27.7916853,32.2781463 L30.5610112,32.2781463 C31.1810112,32.2781463 31.77,32.0577666 32.2453371,31.6533445 C32.4081038,31.5107426 33.1185112,30.8936794 33.9581038,29.9629817 C33.9864888,29.9318593 34.0226965,29.9085316 34.0639888,29.8981575 L41.7132444,27.6788833 C41.8553371,27.6373868 42,27.746287 42,27.8966835 Z" id="Path" fill="#FFFFFF"></path>
            </g>
        </g>
    </g>
</svg>